<?xml version="1.0" encoding="utf-8"?>
<svg viewBox="0 0 75.66 75.66" width="75.66" height="75.66" xmlns="http://www.w3.org/2000/svg">
  <defs>
    <filter id="colors9098082997">
      <feColorMatrix type="matrix" values="0 0 0 0 0.265625  0 0 0 0 0.265625  0 0 0 0 0.265625  0 0 0 1&#10;0" class="icon-feColorMatrix "/>
    </filter>
  </defs>
  <svg viewBox="0 0 60 60" x="0" y="0" width="75.65999999999998" height="75.65999999999998" class="image-svg-svg bn" style="overflow: visible;" transform="matrix(8.901176901424632, 0, 0, 8.901176901424632, 932.9646929572611, 524.555269129136)">
    <g hollow-target="iconBnFill" mask="url(#2545ce49-6cc4-495d-a3cc-9343b2e992a6)">
      <g>
        <svg fill="#000000" xmlns="http://www.w3.org/2000/svg" version="1.1" x="0" y="0" viewBox="5 5 90 90" style="overflow: visible;" width="60" height="60" filtersec="colorsf593682473" filter="url(#tH2K-trZk6rydYmz4uFzk)">
          <g transform="scale(1, 1)&#10;skewX(0)">
            <g>
              <g>
                <path d="M50,5L5,50l45,45l45-45L50,5z"/>
              </g>
            </g>
          </g>
          <defs>
            <filter id="tH2K-trZk6rydYmz4uFzk">
              <feColorMatrix type="matrix" values="0 0 0&#10;0 0.265625  0 0 0 0 0.265625  0 0 0 0 0.265625  0 0 0 1&#10;0"/>
            </filter>
          </defs>
        </svg>
      </g>
      <g filter="url(#colors9098082997)">
        <svg xmlns="http://www.w3.org/2000/svg" viewBox="0 0&#10;51.84000000000001 51.912000000000006" width="37.62" height="37.62" x="11.190000000000001" y="11.190000000000001" class="image-svg-letter">
          <path transform="translate(-4.104&#10;51.912000000000006)" d="M55.94 0L4.10 0L4.10-51.91L9.94-51.91L9.94-5.83L55.94-5.83L55.94 0Z"/>
        </svg>
      </g>
    </g>
    <mask id="2545ce49-6cc4-495d-a3cc-9343b2e992a6">
      <g fill="white">
        <svg xmlns="http://www.w3.org/2000/svg" version="1.1" x="0" y="0" viewBox="5 5 90 90" style="overflow: visible;" width="60" height="60" filtersec="colorsf593682473">
          <g transform="scale(1, 1) skewX(0)">
            <g>
              <g>
                <path d="M50,5L5,50l45,45l45-45L50,5z"/>
              </g>
            </g>
          </g>
        </svg>
      </g>
      <g fill="black">
        <svg xmlns="http://www.w3.org/2000/svg" viewBox="0 0&#10;                                                         51.84000000000001&#10;                                                         51.912000000000006" width="37.62" height="37.62" x="11.190000000000001" y="11.190000000000001" class="image-svg-letter">
          <path transform="translate(-4.104 51.912000000000006)" d="M55.94 0L4.10 0L4.10-51.91L9.94-51.91L9.94-5.83L55.94-5.83L55.94 0Z"/>
        </svg>
      </g>
    </mask>
  </svg>
  <path d="M 12.573 44.553 L 0 44.553 L 0 31.96 L 1.412 31.96 L 1.412 43.136 L 12.573 43.136 L 12.573 44.553 Z M 16.444 44.553 L 15.012 44.553 L 15.012 34.425 L 16.444 34.425 L 16.444 44.553 Z M 15.012 32.539 L 15.012 31.107 L 16.444 31.107 L 16.444 32.539 L 15.012 32.539 Z M 25.15 32.539 L 21.448 32.539 C 21.262 32.539 21.102 32.606 20.969 32.739 C 20.836 32.872 20.77 33.031 20.77 33.218 L 20.77 34.425 L 25.15 34.425 L 25.15 35.857 L 20.77 35.857 L 20.77 44.553 L 19.333 44.553 L 19.333 33.218 C 19.333 32.626 19.537 32.125 19.947 31.716 C 20.352 31.31 20.853 31.107 21.448 31.107 L 25.15 31.107 L 25.15 32.539 Z M 33.841 34.425 L 33.841 35.857 L 29.456 35.857 L 29.456 42.437 C 29.456 42.624 29.524 42.785 29.66 42.921 C 29.793 43.054 29.953 43.121 30.139 43.121 L 33.841 43.121 L 33.841 44.553 L 30.139 44.553 C 29.544 44.553 29.043 44.347 28.638 43.934 C 28.228 43.518 28.024 43.019 28.024 42.437 L 28.024 31.107 L 29.456 31.107 L 29.456 34.425 L 33.841 34.425 Z M 36.77 31.98 L 48.24 31.98 L 48.24 33.392 L 38.182 33.392 L 38.182 37.548 L 46.269 37.548 L 46.269 38.98 L 38.182 38.98 L 38.182 43.136 L 48.24 43.136 L 48.24 44.553 L 36.77 44.553 L 36.77 31.98 Z M 64.195 44.553 L 51.622 44.553 L 51.622 31.96 L 53.039 31.96 L 53.039 43.136 L 64.195 43.136 L 64.195 44.553 Z M 63.082 33.392 L 63.082 31.98 L 75.66 31.98 L 75.66 33.392 L 70.087 33.392 L 70.087 44.553 L 68.675 44.553 L 68.675 33.392 L 63.082 33.392 Z"/>
</svg>