<?xml version="1.0" encoding="utf-8"?>
<svg viewBox="932.9647 524.5553 534.0706 534.0706" width="534.0706" height="534.0706" xmlns="http://www.w3.org/2000/svg">
  <g fill="#444" class="iconsvg-imagesvg icon_container" transform="matrix(7.0588235294117645, 0, 0, 7.0588235294117645, 932.9646929572611, 524.555269129136)">
    <rect fill="#444" fill-opacity="0" stroke-width="2" x="0" y="0" width="75.65999999999998" height="75.65999999999998" class="image-rect"/>
    <svg viewBox="0 0 60 60" x="0" y="0" width="75.65999999999998" height="75.65999999999998" class="image-svg-svg bn" style="overflow: visible;">
      <g hollow-target="iconBnFill" mask="url(#2545ce49-6cc4-495d-a3cc-9343b2e992a6)">
        <g>
          <svg fill="#000000" xmlns="http://www.w3.org/2000/svg" version="1.1" x="0" y="0" viewBox="5 5 90 90" style="overflow: visible;" width="60" height="60" filtersec="colorsf593682473" filter="url(#tH2K-trZk6rydYmz4uFzk)">
            <g transform="scale(1, 1)&#10;skewX(0)">
              <g>
                <g>
                  <path d="M50,5L5,50l45,45l45-45L50,5z"/>
                </g>
              </g>
            </g>
            <defs>
              <filter id="tH2K-trZk6rydYmz4uFzk">
                <feColorMatrix type="matrix" values="0 0 0&#10;0 0.265625  0 0 0 0 0.265625  0 0 0 0 0.265625  0 0 0 1&#10;0"/>
              </filter>
            </defs>
          </svg>
        </g>
        <g filter="url(#colors9098082997)">
          <svg xmlns="http://www.w3.org/2000/svg" viewBox="0 0&#10;51.84000000000001 51.912000000000006" width="37.62" height="37.62" x="11.190000000000001" y="11.190000000000001" class="image-svg-letter">
            <path transform="translate(-4.104&#10;51.912000000000006)" d="M55.94 0L4.10 0L4.10-51.91L9.94-51.91L9.94-5.83L55.94-5.83L55.94 0Z"/>
          </svg>
        </g>
      </g>
      <mask id="2545ce49-6cc4-495d-a3cc-9343b2e992a6">
        <g fill="white">
          <svg xmlns="http://www.w3.org/2000/svg" version="1.1" x="0" y="0" viewBox="5 5 90 90" style="overflow: visible;" width="60" height="60" filtersec="colorsf593682473">
            <g transform="scale(1, 1) skewX(0)">
              <g>
                <g>
                  <path d="M50,5L5,50l45,45l45-45L50,5z"/>
                </g>
              </g>
            </g>
          </svg>
        </g>
        <g fill="black">
          <svg xmlns="http://www.w3.org/2000/svg" viewBox="0 0&#10;                                                         51.84000000000001&#10;                                                         51.912000000000006" width="37.62" height="37.62" x="11.190000000000001" y="11.190000000000001" class="image-svg-letter">
            <path transform="translate(-4.104 51.912000000000006)" d="M55.94 0L4.10 0L4.10-51.91L9.94-51.91L9.94-5.83L55.94-5.83L55.94 0Z"/>
          </svg>
        </g>
      </mask>
    </svg>
    <defs>
      <filter id="colors9098082997">
        <feColorMatrix type="matrix" values="0 0 0 0 0.265625  0 0 0 0 0.265625  0 0 0 0 0.265625  0 0 0 1&#10;0" class="icon-feColorMatrix "/>
      </filter>
    </defs>
  </g>
  <g transform="matrix(3.949876, 0, 0, 3.949876, 932.964722, 744.752991)" style="">
    <g fill-rule="" class="tp-name iconsvg-namesvg">
      <g transform="scale(0.8799999999999999)">
        <g>
          <path d="M 27.2 0 L 2 0 L 2 -25.24 L 4.83 -25.24 L 4.83 -2.84 L 27.2 -2.84 L 27.2 0 Z M 34.96 0 L 32.09 0 L 32.09 -20.3 L 34.96 -20.3 L 34.96 0 Z M 32.09 -24.08 L 32.09 -26.95 L 34.96 -26.95 L 34.96 -24.08 L 32.09 -24.08 Z M 52.41 -24.08 L 44.99 -24.08 Q 44.43 -24.08 44.03 -23.68 Q 43.63 -23.28 43.63 -22.72 L 43.63 -22.72 L 43.63 -20.3 L 52.41 -20.3 L 52.41 -17.43 L 43.63 -17.43 L 43.63 0 L 40.75 0 L 40.75 -22.72 Q 40.75 -24.5 41.98 -25.73 Q 43.2 -26.95 44.99 -26.95 L 44.99 -26.95 L 52.41 -26.95 L 52.41 -24.08 Z M 69.83 -20.3 L 69.83 -17.43 L 61.04 -17.43 L 61.04 -4.24 Q 61.04 -3.68 61.45 -3.27 Q 61.85 -2.87 62.41 -2.87 L 62.41 -2.87 L 69.83 -2.87 L 69.83 0 L 62.41 0 Q 60.62 0 59.4 -1.24 Q 58.17 -2.49 58.17 -4.24 L 58.17 -4.24 L 58.17 -26.95 L 61.04 -26.95 L 61.04 -20.3 L 69.83 -20.3 Z M 75.7 -25.2 L 98.69 -25.2 L 98.69 -22.37 L 78.53 -22.37 L 78.53 -14.04 L 94.74 -14.04 L 94.74 -11.17 L 78.53 -11.17 L 78.53 -2.84 L 98.69 -2.84 L 98.69 0 L 75.7 0 L 75.7 -25.2 Z M 130.67 0 L 105.47 0 L 105.47 -25.24 L 108.31 -25.24 L 108.31 -2.84 L 130.67 -2.84 L 130.67 0 Z M 130.44 -22.37 L 130.44 -25.2 L 155.65 -25.2 L 155.65 -22.37 L 144.48 -22.37 L 144.48 0 L 141.65 0 L 141.65 -22.37 L 130.44 -22.37 Z" transform="translate(-2, 26.950000762939453)"/>
        </g>
      </g>
    </g>
  </g>
</svg>