<?xml version="1.0" encoding="utf-8"?>
<svg viewBox="101.8681 120.2364 181.9686 31.917" width="181.9686" height="31.917" xmlns="http://www.w3.org/2000/svg">
  <g transform="matrix(1.3458020687103271, 0, 0, 1.3458020687103271, 101.86811065673831, 120.23635864257812)" style="">
    <g fill-rule="" class="tp-name iconsvg-namesvg">
      <g transform="scale(0.8799999999999999)">
        <g>
          <path d="M 27.2 0 L 2 0 L 2 -25.24 L 4.83 -25.24 L 4.83 -2.84 L 27.2 -2.84 L 27.2 0 Z M 34.96 0 L 32.09 0 L 32.09 -20.3 L 34.96 -20.3 L 34.96 0 Z M 32.09 -24.08 L 32.09 -26.95 L 34.96 -26.95 L 34.96 -24.08 L 32.09 -24.08 Z M 52.41 -24.08 L 44.99 -24.08 Q 44.43 -24.08 44.03 -23.68 Q 43.63 -23.28 43.63 -22.72 L 43.63 -22.72 L 43.63 -20.3 L 52.41 -20.3 L 52.41 -17.43 L 43.63 -17.43 L 43.63 0 L 40.75 0 L 40.75 -22.72 Q 40.75 -24.5 41.98 -25.73 Q 43.2 -26.95 44.99 -26.95 L 44.99 -26.95 L 52.41 -26.95 L 52.41 -24.08 Z M 69.83 -20.3 L 69.83 -17.43 L 61.04 -17.43 L 61.04 -4.24 Q 61.04 -3.68 61.45 -3.27 Q 61.85 -2.87 62.41 -2.87 L 62.41 -2.87 L 69.83 -2.87 L 69.83 0 L 62.41 0 Q 60.62 0 59.4 -1.24 Q 58.17 -2.49 58.17 -4.24 L 58.17 -4.24 L 58.17 -26.95 L 61.04 -26.95 L 61.04 -20.3 L 69.83 -20.3 Z M 75.7 -25.2 L 98.69 -25.2 L 98.69 -22.37 L 78.53 -22.37 L 78.53 -14.04 L 94.74 -14.04 L 94.74 -11.17 L 78.53 -11.17 L 78.53 -2.84 L 98.69 -2.84 L 98.69 0 L 75.7 0 L 75.7 -25.2 Z M 130.67 0 L 105.47 0 L 105.47 -25.24 L 108.31 -25.24 L 108.31 -2.84 L 130.67 -2.84 L 130.67 0 Z M 130.44 -22.37 L 130.44 -25.2 L 155.65 -25.2 L 155.65 -22.37 L 144.48 -22.37 L 144.48 0 L 141.65 0 L 141.65 -22.37 L 130.44 -22.37 Z" transform="translate(-2, 26.950000762939453)"/>
        </g>
      </g>
    </g>
  </g>
</svg>