<?xml version="1.0" encoding="utf-8"?>
<svg viewBox="228.7616 36.5137 179.5988 114.3582" width="179.5988" height="114.3582" xmlns="http://www.w3.org/2000/svg">
  <g transform="matrix(1.3458020687103271, 0, 0, 1.3458020687103271, 226.39176940917966, 118.95487976074222)" style="">
    <g fill-rule="" class="tp-name iconsvg-namesvg">
      <g transform="scale(0.8799999999999999)">
        <g>
          <path d="M 27.201 26.95 L 2.001 26.95 L 2.001 1.711 L 4.831 1.711 L 4.831 24.11 L 27.201 24.11 L 27.201 26.95 Z M 34.961 26.95 L 32.092 26.95 L 32.092 6.65 L 34.961 6.65 L 34.961 26.95 Z M 32.092 2.87 L 32.092 0 L 34.961 0 L 34.961 2.87 L 32.092 2.87 Z M 52.411 2.87 L 44.991 2.87 C 44.618 2.87 44.297 3.004 44.032 3.27 C 43.765 3.536 43.631 3.857 43.631 4.23 L 43.631 6.65 L 52.411 6.65 L 52.411 9.52 L 43.631 9.52 L 43.631 26.95 L 40.751 26.95 L 40.751 4.23 C 40.751 3.043 41.161 2.041 41.982 1.22 C 42.795 0.406 43.798 0 44.991 0 L 52.411 0 L 52.411 2.87 Z M 69.831 6.65 L 69.831 9.52 L 61.042 9.52 L 61.042 22.71 C 61.042 23.084 61.178 23.406 61.45 23.681 C 61.718 23.946 62.038 24.08 62.411 24.08 L 69.831 24.08 L 69.831 26.95 L 62.411 26.95 C 61.218 26.95 60.214 26.536 59.401 25.71 C 58.581 24.877 58.172 23.877 58.172 22.71 L 58.172 0 L 61.042 0 L 61.042 6.65 L 69.831 6.65 Z M 75.701 1.75 L 98.692 1.75 L 98.692 4.58 L 78.531 4.58 L 78.531 12.91 L 94.741 12.91 L 94.741 15.78 L 78.531 15.78 L 78.531 24.11 L 98.692 24.11 L 98.692 26.95 L 75.701 26.95 L 75.701 1.75 Z M 130.671 26.95 L 105.471 26.95 L 105.471 1.711 L 108.311 1.711 L 108.311 24.11 L 130.671 24.11 L 130.671 26.95 Z M 128.441 4.58 L 128.441 1.75 L 153.65 1.75 L 153.65 4.58 L 142.48 4.58 L 142.48 26.95 L 139.65 26.95 L 139.65 4.58 L 128.441 4.58 Z" style=""/>
        </g>
      </g>
    </g>
  </g>
  <g fill="#444" class="iconsvg-imagesvg icon_container" transform="matrix(1.07151198387146, 0, 0, 1.07151198387146, 278.025634765625, 36.51370620727539)" style="">
    <rect fill="#444" fill-opacity="0" stroke-width="2" x="0" y="0" width="75.65999999999998" height="75.65999999999998" class="image-rect"/>
    <svg viewBox="0 0 60 60" x="0" y="0" width="75.65999999999998" height="75.65999999999998" class="image-svg-svg bn" style="overflow: visible;">
      <g hollow-target="iconBnFill" mask="url(#2545ce49-6cc4-495d-a3cc-9343b2e992a6)">
        <g>
          <svg fill="#000000" xmlns="http://www.w3.org/2000/svg" version="1.1" x="0" y="0" viewBox="5 5 90 90" style="overflow: visible;" width="60" height="60" filtersec="colorsf593682473" filter="url(#tH2K-trZk6rydYmz4uFzk)">
            <g transform="scale(1, 1)&#10;skewX(0)">
              <g>
                <g>
                  <path d="M50,5L5,50l45,45l45-45L50,5z"/>
                </g>
              </g>
            </g>
            <defs>
              <filter id="tH2K-trZk6rydYmz4uFzk">
                <feColorMatrix type="matrix" values="0 0 0&#10;0 0.265625  0 0 0 0 0.265625  0 0 0 0 0.265625  0 0 0 1&#10;0"/>
              </filter>
            </defs>
          </svg>
        </g>
        <g filter="url(#colors9098082997)">
          <svg xmlns="http://www.w3.org/2000/svg" viewBox="0 0&#10;51.84000000000001 51.912000000000006" width="37.62" height="37.62" x="11.190000000000001" y="11.190000000000001" class="image-svg-letter">
            <path transform="translate(-4.104&#10;51.912000000000006)" d="M55.94 0L4.10 0L4.10-51.91L9.94-51.91L9.94-5.83L55.94-5.83L55.94 0Z"/>
          </svg>
        </g>
      </g>
      <mask id="2545ce49-6cc4-495d-a3cc-9343b2e992a6">
        <g fill="white">
          <svg xmlns="http://www.w3.org/2000/svg" version="1.1" x="0" y="0" viewBox="5 5 90 90" style="overflow: visible;" width="60" height="60" filtersec="colorsf593682473">
            <g transform="scale(1, 1) skewX(0)">
              <g>
                <g>
                  <path d="M50,5L5,50l45,45l45-45L50,5z"/>
                </g>
              </g>
            </g>
          </svg>
        </g>
        <g fill="black">
          <svg xmlns="http://www.w3.org/2000/svg" viewBox="0 0&#10;                                                         51.84000000000001&#10;                                                         51.912000000000006" width="37.62" height="37.62" x="11.190000000000001" y="11.190000000000001" class="image-svg-letter">
            <path transform="translate(-4.104 51.912000000000006)" d="M55.94 0L4.10 0L4.10-51.91L9.94-51.91L9.94-5.83L55.94-5.83L55.94 0Z"/>
          </svg>
        </g>
      </mask>
    </svg>
    <defs>
      <filter id="colors9098082997">
        <feColorMatrix type="matrix" values="0 0 0 0 0.265625  0 0 0 0 0.265625  0 0 0 0 0.265625  0 0 0 1&#10;0" class="icon-feColorMatrix "/>
      </filter>
    </defs>
  </g>
</svg>